<svg width="1366" height="625" viewBox="0 0 1366 625" fill="none" xmlns="http://www.w3.org/2000/svg">
<g clip-path="url(#clip0)">
<rect width="1366" height="625" fill="white"/>
<g clip-path="url(#clip1)">
<path d="M1148.96 577C1194.82 577 1232 570.861 1232 563.288C1232 555.716 1194.82 549.577 1148.96 549.577C1103.11 549.577 1065.93 555.716 1065.93 563.288C1065.93 570.861 1103.11 577 1148.96 577Z" fill="#3F3D56"/>
<path d="M1219.2 512.806C1219.03 542.264 1201.47 552.451 1179.88 552.332C1179.38 552.329 1178.88 552.321 1178.39 552.307C1177.38 552.28 1176.39 552.229 1175.42 552.153C1155.94 550.665 1140.86 539.769 1141.01 512.373C1141.16 484.022 1177.58 448.443 1180.31 445.813C1180.31 445.813 1180.31 445.813 1180.32 445.811C1180.42 445.71 1180.47 445.66 1180.47 445.66C1180.47 445.66 1219.36 483.351 1219.2 512.806Z" fill="#637BFF"/>
<path d="M1178.48 547.818L1192.89 527.91L1178.44 550.012L1178.39 552.307C1177.38 552.28 1176.39 552.229 1175.42 552.154L1177.12 522.692L1177.11 522.464L1177.13 522.421L1177.3 519.637L1163.05 497.32L1177.35 517.551L1177.38 518.142L1178.67 495.882L1166.5 472.836L1178.84 491.97L1180.31 445.813L1180.32 445.659L1180.32 445.811L1179.91 482.215L1192.24 467.85L1179.84 485.35L1179.41 505.285L1190.95 486.216L1179.35 508.216L1179.11 519.301L1195.85 492.761L1179.02 523.168L1178.48 547.818Z" fill="#3F3D56"/>
<path d="M1141.15 288.822C1155.6 288.822 1167.32 277.099 1167.32 262.638C1167.32 248.178 1155.6 236.455 1141.15 236.455C1126.69 236.455 1114.98 248.178 1114.98 262.638C1114.98 277.099 1126.69 288.822 1141.15 288.822Z" fill="#2F2E41"/>
<path d="M1137.25 289.566C1147.07 289.566 1155.02 281.606 1155.02 271.786C1155.02 261.966 1147.07 254.005 1137.25 254.005C1127.44 254.005 1119.48 261.966 1119.48 271.786C1119.48 281.606 1127.44 289.566 1137.25 289.566Z" fill="#FFB8B8"/>
<path d="M1126.68 281.397C1126.68 281.397 1134.37 299.177 1130.53 301.1C1126.68 303.022 1124.76 311.672 1124.76 311.672L1134.85 332.817L1148.78 341.467H1156.95C1156.95 341.467 1165.11 304.944 1162.23 300.619C1159.35 296.294 1148.78 293.891 1148.78 293.891C1148.78 293.891 1146.38 288.125 1147.34 282.838C1148.3 277.552 1126.68 281.397 1126.68 281.397Z" fill="#FFB8B8"/>
<path d="M1115.16 331.856L1102.67 321.764C1102.67 321.764 1080.09 305.905 1082.97 317.439C1085.86 328.972 1098.83 329.933 1098.83 329.933L1120.44 347.234L1115.16 331.856Z" fill="#FFB8B8"/>
<path d="M1114.2 384.717C1114.2 384.717 1108.43 408.745 1114.2 441.423L1116.6 454.399C1116.6 454.399 1116.6 464.49 1119 468.335C1119 468.335 1125.24 525.521 1128.61 525.521C1131.97 525.521 1142.54 523.599 1143.5 522.158C1144.46 520.716 1124.76 382.314 1124.76 382.314L1114.2 384.717Z" fill="#2F2E41"/>
<path opacity="0.1" d="M1114.2 384.717C1114.2 384.717 1108.43 408.745 1114.2 441.423L1116.6 454.399C1116.6 454.399 1116.6 464.49 1119 468.335C1119 468.335 1125.24 525.521 1128.61 525.521C1131.97 525.521 1142.54 523.599 1143.5 522.158C1144.46 520.716 1124.76 382.314 1124.76 382.314L1114.2 384.717Z" fill="black"/>
<path d="M1129.97 521.684L1122.53 549.271C1122.53 549.271 1107.65 558.029 1116.84 559.781C1126.03 561.532 1135.22 558.029 1135.22 558.029L1139.6 545.33L1143.98 542.703V556.277H1145.29L1148.35 538.324C1148.35 538.324 1147.92 529.128 1145.29 528.252C1142.66 527.376 1141.35 522.559 1141.35 522.559L1129.97 521.684Z" fill="#2F2E41"/>
<path opacity="0.1" d="M1129.97 521.684L1122.53 549.271C1122.53 549.271 1107.65 558.029 1116.84 559.781C1126.03 561.532 1135.22 558.029 1135.22 558.029L1139.6 545.33L1143.98 542.703V556.277H1145.29L1148.35 538.324C1148.35 538.324 1147.92 529.128 1145.29 528.252C1142.66 527.376 1141.35 522.559 1141.35 522.559L1129.97 521.684Z" fill="black"/>
<path d="M1112.27 383.756C1112.27 383.756 1116.12 398.173 1117.56 400.576C1117.56 400.576 1119.48 441.423 1125.72 455.36L1132.45 473.14C1132.45 473.14 1143.5 525.521 1140.61 531.288C1140.61 531.288 1155.5 534.652 1156.46 531.288C1156.46 531.288 1155.98 503.416 1157.43 499.571C1158.87 495.727 1161.27 474.582 1149.74 459.204V412.59C1149.74 412.59 1167.99 397.212 1157.43 377.509C1146.86 357.806 1112.27 383.756 1112.27 383.756Z" fill="#2F2E41"/>
<path d="M1142.06 528.405L1133.89 558.68C1133.89 558.68 1117.56 568.291 1127.65 570.214C1137.73 572.136 1147.82 568.291 1147.82 568.291L1152.62 554.355L1157.43 551.472V566.369H1158.87L1162.23 546.666C1162.23 546.666 1161.75 536.574 1158.87 535.613C1155.98 534.652 1154.54 529.366 1154.54 529.366L1142.06 528.405Z" fill="#2F2E41"/>
<path d="M1131.57 297.511C1131.57 297.511 1119.48 304.464 1119.48 304.944C1119.48 305.425 1120.92 313.114 1120.92 313.114C1120.92 313.114 1106.03 328.011 1116.12 340.986C1116.12 340.986 1119.48 343.389 1119.48 351.078V358.767C1119.48 358.767 1091.14 376.548 1098.35 382.314C1105.55 388.081 1113.24 387.12 1115.64 390.484C1118.04 393.848 1131.97 387.601 1134.85 386.639C1137.73 385.678 1138.21 384.717 1140.61 388.081C1143.02 391.445 1156.46 385.678 1156.46 385.678C1156.46 385.678 1165.11 383.276 1167.03 383.276C1168.22 383.261 1169.38 382.929 1170.39 382.314L1149.74 361.17L1160.07 334.979C1160.07 334.979 1129.57 315.997 1129.57 310.711C1129.57 305.425 1131.57 297.511 1131.57 297.511Z" fill="#3F3D56"/>
<path d="M1150.22 298.697C1150.22 298.697 1143.98 307.347 1148.78 319.361C1153.58 331.375 1161.27 345.311 1161.27 345.311L1149.26 349.156H1138.21C1138.21 349.156 1115.16 345.311 1117.56 353.961C1119.96 362.611 1136.29 358.767 1136.29 358.767H1145.9C1145.9 358.767 1167.51 361.17 1170.39 357.325C1170.39 357.325 1178.08 356.845 1174.72 341.467C1171.35 326.089 1161.54 299.765 1161.54 299.765L1150.22 298.697Z" fill="#FFB8B8"/>
<path d="M1133.8 263.815C1143.05 263.815 1150.56 259.995 1150.56 255.283C1150.56 250.571 1143.05 246.752 1133.8 246.752C1124.54 246.752 1117.03 250.571 1117.03 255.283C1117.03 259.995 1124.54 263.815 1133.8 263.815Z" fill="#2F2E41"/>
<path d="M1154.78 275.87C1156.11 275.87 1157.19 273.504 1157.19 270.584C1157.19 267.665 1156.11 265.298 1154.78 265.298C1153.46 265.298 1152.38 267.665 1152.38 270.584C1152.38 273.504 1153.46 275.87 1154.78 275.87Z" fill="#FFB8B8"/>
<path d="M1152.86 253.765C1160.82 253.765 1167.27 247.31 1167.27 239.348C1167.27 231.386 1160.82 224.931 1152.86 224.931C1144.9 224.931 1138.45 231.386 1138.45 239.348C1138.45 247.31 1144.9 253.765 1152.86 253.765Z" fill="#2F2E41"/>
<path opacity="0.3" d="M845.846 304.92C878.496 304.92 904.965 278.439 904.965 245.772C904.965 213.106 878.496 186.625 845.846 186.625C813.195 186.625 786.727 213.106 786.727 245.772C786.727 278.439 813.195 304.92 845.846 304.92Z" fill="#637BFF"/>
<path opacity="0.3" d="M731.37 445.262C750.664 445.262 766.304 429.614 766.304 410.311C766.304 391.008 750.664 375.36 731.37 375.36C712.077 375.36 696.436 391.008 696.436 410.311C696.436 429.614 712.077 445.262 731.37 445.262Z" fill="#637BFF"/>
<path opacity="0.3" d="M955.485 481.826C994.962 481.826 1026.96 449.807 1026.96 410.311C1026.96 370.814 994.962 338.796 955.485 338.796C916.007 338.796 884.004 370.814 884.004 410.311C884.004 449.807 916.007 481.826 955.485 481.826Z" fill="#637BFF"/>
<path d="M718.541 294.748L717.49 294.524C717.715 293.467 717.95 292.414 718.194 291.365L719.241 291.609C718.998 292.652 718.765 293.698 718.541 294.748Z" fill="#637BFF"/>
<path d="M1057 285.863C1056.45 283.814 1055.85 281.745 1055.22 279.714L1056.25 279.396C1056.88 281.44 1057.48 283.522 1058.04 285.584L1057 285.863ZM720.809 285.393L719.772 285.111C720.335 283.043 720.944 280.955 721.585 278.905L722.611 279.226C721.974 281.263 721.368 283.338 720.809 285.393V285.393ZM1053.22 273.644C1052.52 271.636 1051.77 269.62 1051 267.651L1052 267.258C1052.78 269.239 1053.53 271.268 1054.24 273.289L1053.22 273.644ZM724.64 273.132L723.626 272.774C724.342 270.75 725.105 268.715 725.894 266.723L726.893 267.119C726.109 269.099 725.351 271.122 724.64 273.132ZM1048.55 261.742C1047.71 259.798 1046.81 257.841 1045.89 255.926L1046.86 255.46C1047.79 257.388 1048.69 259.357 1049.54 261.312L1048.55 261.742ZM729.367 261.195L728.383 260.762C729.246 258.799 730.157 256.827 731.091 254.899L732.059 255.368C731.13 257.284 730.225 259.244 729.367 261.195ZM1043.02 250.21C1042.03 248.328 1040.99 246.441 1039.93 244.603L1040.87 244.068C1041.93 245.917 1042.97 247.815 1043.97 249.709L1043.02 250.21ZM734.963 249.646L734.014 249.141C735.02 247.248 736.074 245.348 737.147 243.497L738.077 244.036C737.01 245.876 735.963 247.764 734.963 249.646ZM1036.64 239.113C1035.52 237.311 1034.35 235.505 1033.16 233.745L1034.05 233.142C1035.24 234.914 1036.43 236.731 1037.56 238.543L1036.64 239.113ZM741.393 238.546L740.483 237.973C741.624 236.161 742.814 234.346 744.021 232.576L744.909 233.182C743.709 234.941 742.526 236.746 741.393 238.546H741.393ZM1029.47 228.508C1028.22 226.801 1026.92 225.085 1025.6 223.409L1026.44 222.743C1027.77 224.429 1029.08 226.155 1030.34 227.873L1029.47 228.508ZM748.619 227.952L747.754 227.314C749.026 225.588 750.346 223.866 751.677 222.193L752.518 222.862C751.195 224.525 749.884 226.237 748.619 227.952H748.619ZM1021.54 218.454C1020.16 216.835 1018.74 215.219 1017.3 213.65L1018.09 212.924C1019.54 214.502 1020.97 216.128 1022.36 217.757L1021.54 218.454ZM756.6 217.92L755.784 217.22C757.175 215.596 758.617 213.975 760.069 212.401L760.859 213.13C759.416 214.695 757.982 216.306 756.6 217.92ZM1012.89 209.004C1011.4 207.487 1009.86 205.978 1008.31 204.521L1009.05 203.739C1010.6 205.205 1012.15 206.722 1013.66 208.249L1012.89 209.004ZM765.29 208.501L764.527 207.743C766.037 206.223 767.592 204.712 769.152 203.252L769.886 204.038C768.336 205.488 766.79 206.99 765.29 208.501ZM1003.57 200.209C1001.97 198.806 1000.32 197.414 998.676 196.071L999.354 195.237C1001.01 196.588 1002.67 197.988 1004.28 199.4L1003.57 200.209ZM774.641 199.745L773.936 198.934C775.551 197.529 777.213 196.136 778.875 194.794L779.55 195.631C777.898 196.965 776.247 198.349 774.641 199.745ZM993.631 192.116C991.937 190.836 990.192 189.568 988.445 188.347L989.06 187.466C990.818 188.694 992.574 189.97 994.279 191.257L993.631 192.116ZM784.605 191.699L783.961 190.838C785.675 189.555 787.433 188.288 789.187 187.072L789.799 187.957C788.056 189.164 786.308 190.424 784.605 191.699ZM983.123 184.771C981.335 183.617 979.501 182.48 977.672 181.393L978.221 180.468C980.062 181.563 981.907 182.707 983.706 183.868L983.123 184.771ZM795.126 184.407L794.547 183.502C796.348 182.349 798.194 181.215 800.033 180.13L800.579 181.057C798.75 182.134 796.916 183.262 795.126 184.407V184.407ZM972.099 178.217C970.235 177.2 968.321 176.201 966.412 175.249L966.892 174.287C968.813 175.245 970.738 176.249 972.614 177.273L972.099 178.217ZM806.149 177.91L805.638 176.963C807.517 175.947 809.441 174.952 811.355 174.006L811.831 174.97C809.928 175.911 808.017 176.9 806.149 177.91ZM960.618 172.492C958.682 171.615 956.7 170.76 954.725 169.952L955.132 168.956C957.119 169.77 959.114 170.63 961.062 171.513L960.618 172.492ZM817.616 172.244L817.176 171.263C819.121 170.39 821.111 169.54 823.092 168.737L823.495 169.733C821.527 170.531 819.549 171.376 817.616 172.244ZM948.74 167.632C946.737 166.898 944.696 166.192 942.672 165.535L943.004 164.512C945.04 165.174 947.095 165.884 949.11 166.622L948.74 167.632ZM829.462 167.442L829.096 166.431C831.103 165.703 833.149 165.003 835.179 164.35L835.507 165.374C833.491 166.022 831.457 166.718 829.462 167.442ZM936.528 163.664C934.481 163.082 932.398 162.532 930.335 162.027L930.59 160.983C932.666 161.49 934.762 162.044 936.822 162.63L936.528 163.664ZM841.641 163.527L841.351 162.491C843.407 161.913 845.505 161.366 847.587 160.863L847.839 161.908C845.771 162.408 843.685 162.952 841.641 163.527ZM924.086 160.621C922.004 160.193 919.886 159.798 917.789 159.447L917.966 158.386C920.076 158.739 922.208 159.137 924.302 159.568L924.086 160.621ZM854.092 160.52L853.879 159.466C855.977 159.041 858.11 158.65 860.218 158.303L860.392 159.364C858.297 159.709 856.177 160.097 854.092 160.52V160.52ZM911.453 158.506C909.341 158.232 907.199 157.994 905.087 157.799L905.186 156.728C907.311 156.925 909.466 157.164 911.591 157.439L911.453 158.506ZM866.731 158.442L866.596 157.375C868.714 157.106 870.87 156.873 873.003 156.682L873.099 157.753C870.979 157.943 868.836 158.175 866.731 158.442V158.442ZM898.699 157.325C896.58 157.207 894.427 157.126 892.298 157.085L892.319 156.009C894.46 156.051 896.627 156.132 898.758 156.251L898.699 157.325ZM879.489 157.298L879.432 156.224C881.566 156.111 883.734 156.035 885.873 156L885.891 157.075C883.764 157.11 881.61 157.185 879.489 157.298Z" fill="#637BFF"/>
<path d="M1059.27 295.344C1059.05 294.293 1058.82 293.246 1058.58 292.203L1059.63 291.962C1059.87 293.012 1060.1 294.066 1060.32 295.124L1059.27 295.344Z" fill="#637BFF"/>
<path d="M1060.72 365.462L1059.66 365.253C1059.87 364.203 1060.07 363.149 1060.26 362.092L1061.31 362.281C1061.13 363.345 1060.93 364.405 1060.72 365.462Z" fill="#637BFF"/>
<path d="M888.842 506.56C887.673 506.56 886.508 506.549 885.345 506.526L885.366 505.451C887.491 505.492 889.631 505.495 891.758 505.461L891.775 506.536C890.799 506.552 889.821 506.56 888.842 506.56ZM898.202 506.315L898.145 505.241C900.271 505.129 902.415 504.977 904.519 504.789L904.614 505.86C902.498 506.049 900.34 506.202 898.202 506.315ZM878.921 506.284C876.787 506.165 874.63 506.005 872.509 505.809L872.608 504.738C874.716 504.933 876.86 505.092 878.981 505.211L878.921 506.284ZM911.007 505.171L910.872 504.104C912.988 503.837 915.115 503.528 917.196 503.187L917.37 504.248C915.276 504.591 913.136 504.902 911.007 505.171V505.171ZM866.119 505.1C863.995 504.824 861.855 504.507 859.759 504.156L859.936 503.096C862.02 503.444 864.146 503.759 866.257 504.033L866.119 505.1ZM923.695 503.093L923.482 502.038C925.568 501.617 927.667 501.152 929.721 500.658L929.972 501.704C927.906 502.201 925.793 502.668 923.695 503.093ZM853.438 502.98C851.341 502.549 849.23 502.075 847.164 501.57L847.419 500.525C849.472 501.027 851.57 501.498 853.654 501.926L853.438 502.98ZM936.195 500.083L935.906 499.048C937.944 498.476 940.004 497.858 942.026 497.21L942.354 498.234C940.319 498.886 938.247 499.509 936.195 500.083V500.083ZM840.947 499.93C838.892 499.347 836.817 498.717 834.778 498.056L835.109 497.033C837.135 497.69 839.198 498.317 841.24 498.896L840.947 499.93ZM948.424 496.164L948.058 495.153C950.044 494.434 952.048 493.667 954.012 492.873L954.415 493.871C952.438 494.669 950.422 495.441 948.424 496.164L948.424 496.164ZM828.685 495.955C826.675 495.22 824.653 494.438 822.675 493.629L823.081 492.633C825.047 493.437 827.057 494.215 829.054 494.944L828.685 495.955ZM960.318 491.358L959.879 490.376C961.814 489.51 963.756 488.598 965.653 487.663L966.127 488.628C964.219 489.568 962.265 490.486 960.318 491.358L960.318 491.358ZM816.756 491.084C814.809 490.203 812.851 489.274 810.938 488.322L811.416 487.359C813.318 488.305 815.263 489.229 817.199 490.104L816.756 491.084ZM971.835 485.685L971.324 484.739C973.193 483.731 975.064 482.678 976.886 481.607L977.431 482.535C975.597 483.612 973.714 484.672 971.835 485.685H971.835ZM805.226 485.348C803.348 484.326 801.465 483.255 799.628 482.166L800.176 481.241C802.002 482.324 803.873 483.387 805.739 484.403L805.226 485.348ZM982.909 479.179L982.331 478.273C984.111 477.138 985.9 475.949 987.65 474.741L988.261 475.626C986.5 476.842 984.699 478.037 982.909 479.179H982.909ZM794.153 478.781C792.358 477.625 790.559 476.42 788.806 475.198L789.42 474.316C791.163 475.53 792.951 476.728 794.734 477.877L794.153 478.781ZM993.48 471.878L992.838 471.016C994.534 469.751 996.233 468.434 997.887 467.103L998.561 467.941C996.896 469.281 995.187 470.605 993.48 471.878L993.48 471.878ZM783.595 471.423C781.893 470.142 780.187 468.808 778.526 467.46L779.203 466.625C780.854 467.965 782.549 469.29 784.241 470.564L783.595 471.423ZM1003.49 463.82L1002.79 463.007C1004.39 461.619 1005.99 460.182 1007.54 458.735L1008.28 459.521C1006.72 460.977 1005.11 462.423 1003.49 463.82L1003.49 463.82ZM773.606 463.314C771.997 461.907 770.394 460.453 768.842 458.993L769.578 458.209C771.121 459.661 772.714 461.106 774.314 462.504L773.606 463.314ZM1012.9 455.051L1012.14 454.291C1013.64 452.784 1015.13 451.234 1016.57 449.683L1017.36 450.414C1015.91 451.975 1014.41 453.535 1012.9 455.051ZM764.238 454.501C762.741 452.986 761.248 451.419 759.802 449.845L760.594 449.118C762.031 450.682 763.514 452.238 765.003 453.745L764.238 454.501ZM1021.64 445.616L1020.83 444.915C1022.21 443.304 1023.59 441.648 1024.91 439.993L1025.75 440.665C1024.42 442.33 1023.04 443.996 1021.64 445.616ZM755.54 445.031C754.156 443.409 752.783 441.739 751.457 440.066L752.299 439.398C753.617 441.06 754.982 442.721 756.358 444.333L755.54 445.031ZM1029.68 435.565L1028.81 434.925C1030.08 433.212 1031.33 431.46 1032.53 429.717L1033.41 430.325C1032.21 432.079 1030.95 433.842 1029.68 435.565ZM747.558 434.955C746.295 433.236 745.047 431.47 743.849 429.707L744.738 429.102C745.929 430.854 747.169 432.609 748.424 434.319L747.558 434.955ZM1036.96 424.949L1036.05 424.374C1037.18 422.584 1038.3 420.744 1039.37 418.906L1040.3 419.448C1039.22 421.297 1038.1 423.148 1036.96 424.949ZM740.336 424.327C739.203 422.522 738.088 420.671 737.022 418.824L737.952 418.287C739.012 420.121 740.12 421.961 741.246 423.756L740.336 424.327ZM1043.44 413.825L1042.49 413.318C1043.5 411.437 1044.48 409.519 1045.41 407.618L1046.37 408.089C1045.44 410.003 1044.45 411.933 1043.44 413.825ZM733.913 413.204C732.915 411.32 731.94 409.392 731.013 407.475L731.981 407.006C732.902 408.912 733.871 410.827 734.863 412.701L733.913 413.204ZM1049.09 402.249L1048.11 401.813C1048.97 399.873 1049.8 397.886 1050.59 395.91L1051.59 396.309C1050.8 398.298 1049.96 400.297 1049.09 402.249V402.249ZM728.326 401.643C727.469 399.69 726.639 397.697 725.857 395.719L726.856 395.323C727.633 397.289 728.459 399.27 729.31 401.211L728.326 401.643ZM1053.87 390.28L1052.86 389.917C1053.58 387.912 1054.26 385.868 1054.9 383.843L1055.93 384.168C1055.29 386.205 1054.59 388.261 1053.87 390.28ZM723.608 389.709C722.897 387.697 722.214 385.643 721.577 383.605L722.604 383.285C723.236 385.31 723.915 387.351 724.622 389.351L723.608 389.709ZM1057.76 377.983L1056.72 377.696C1057.28 375.658 1057.82 373.574 1058.31 371.503L1059.35 371.751C1058.86 373.834 1058.32 375.931 1057.76 377.983ZM719.774 377.431C719.214 375.374 718.685 373.278 718.201 371.201L719.248 370.957C719.729 373.022 720.255 375.105 720.811 377.148L719.774 377.431Z" fill="#637BFF"/>
<path d="M716.836 364.795C716.631 363.738 716.436 362.677 716.25 361.612L717.309 361.427C717.493 362.485 717.687 363.539 717.891 364.59L716.836 364.795Z" fill="#637BFF"/>
<path d="M976.587 365.953L975.588 365.558C975.978 364.571 976.357 363.561 976.715 362.555L977.728 362.916C977.366 363.934 976.982 364.955 976.587 365.953Z" fill="#637BFF"/>
<path d="M888.841 425.635C887.554 425.635 886.255 425.609 884.98 425.558L885.023 424.483C887.139 424.569 889.301 424.584 891.423 424.525L891.452 425.6C890.585 425.624 889.714 425.636 888.841 425.635ZM897.912 425.204L897.811 424.134C899.927 423.933 902.062 423.654 904.156 423.308L904.332 424.369C902.213 424.72 900.053 425.001 897.912 425.204ZM878.525 425.077C876.387 424.845 874.231 424.535 872.118 424.156L872.307 423.098C874.397 423.472 876.527 423.778 878.641 424.008L878.525 425.077ZM910.678 423.093L910.43 422.047C912.499 421.556 914.576 420.987 916.601 420.356L916.921 421.383C914.872 422.021 912.771 422.597 910.678 423.093V423.093ZM865.789 422.796C863.701 422.272 861.608 421.668 859.567 421.002L859.9 419.979C861.918 420.638 863.987 421.235 866.051 421.753L865.789 422.796ZM923.031 419.244L922.641 418.243C924.619 417.472 926.598 416.622 928.521 415.716L928.979 416.689C927.033 417.606 925.032 418.466 923.031 419.244V419.244ZM853.484 418.781C851.49 417.974 849.5 417.087 847.569 416.145L848.04 415.179C849.949 416.11 851.916 416.986 853.887 417.784L853.484 418.781ZM934.737 413.73L934.213 412.791C936.07 411.753 937.913 410.639 939.691 409.48L940.278 410.381C938.48 411.554 936.615 412.681 934.737 413.73ZM841.85 413.109C839.987 412.035 838.138 410.884 836.353 409.686L836.952 408.793C838.716 409.977 840.544 411.116 842.386 412.177L841.85 413.109ZM945.578 406.661L944.93 405.803C946.629 404.52 948.303 403.165 949.906 401.774L950.61 402.587C948.989 403.993 947.296 405.364 945.578 406.661ZM831.104 405.895C829.402 404.575 827.727 403.181 826.126 401.753L826.841 400.951C828.424 402.362 830.08 403.74 831.763 405.045L831.104 405.895ZM955.353 398.179L954.595 397.417C956.102 395.917 957.576 394.346 958.976 392.749L959.785 393.458C958.369 395.073 956.878 396.662 955.353 398.179V398.179ZM821.442 397.283C819.939 395.748 818.469 394.14 817.073 392.504L817.891 391.806C819.27 393.423 820.724 395.013 822.21 396.532L821.442 397.283ZM963.884 388.445L963.03 387.793C964.318 386.103 965.564 384.347 966.735 382.571L967.633 383.163C966.448 384.96 965.187 386.737 963.884 388.445ZM813.041 387.437C811.759 385.709 810.522 383.915 809.364 382.106L810.269 381.527C811.414 383.315 812.637 385.088 813.904 386.797L813.041 387.437ZM971.009 377.638L970.074 377.108C971.119 375.258 972.113 373.348 973.03 371.429L974 371.893C973.073 373.833 972.067 375.766 971.009 377.638H971.009ZM806.062 376.537C805.028 374.649 804.048 372.703 803.149 370.754L804.125 370.303C805.014 372.23 805.983 374.154 807.004 376.02L806.062 376.537Z" fill="#637BFF"/>
<path d="M800.628 364.746C800.247 363.744 799.878 362.717 799.53 361.693L800.547 361.347C800.891 362.358 801.257 363.374 801.633 364.365L800.628 364.746Z" fill="#637BFF"/>
<path d="M802.289 296.492L801.291 296.091C801.694 295.088 802.118 294.083 802.553 293.101L803.536 293.537C803.106 294.507 802.687 295.501 802.289 296.492Z" fill="#637BFF"/>
<path d="M806.36 287.711L805.41 287.208C806.425 285.287 807.522 283.376 808.67 281.529L809.582 282.097C808.448 283.923 807.364 285.812 806.36 287.711ZM970.474 286.145C969.436 284.266 968.316 282.399 967.146 280.593L968.048 280.008C969.231 281.834 970.364 283.724 971.415 285.624L970.474 286.145ZM813.186 276.72L812.315 276.091C813.587 274.328 814.936 272.587 816.327 270.917L817.153 271.605C815.778 273.257 814.444 274.977 813.186 276.72ZM963.44 275.286C962.151 273.569 960.784 271.874 959.378 270.248L960.19 269.544C961.613 271.189 962.996 272.904 964.3 274.64L963.44 275.286ZM821.463 266.777L820.686 266.033C822.188 264.463 823.764 262.924 825.371 261.461L826.095 262.256C824.506 263.703 822.948 265.224 821.463 266.777ZM954.978 265.502C953.463 263.978 951.876 262.486 950.26 261.07L950.969 260.262C952.603 261.694 954.208 263.202 955.74 264.744L954.978 265.502ZM831.028 258.066L830.36 257.223C832.066 255.873 833.839 254.567 835.63 253.34L836.237 254.227C834.466 255.44 832.713 256.732 831.028 258.066ZM945.249 256.975C943.54 255.674 941.763 254.416 939.967 253.236L940.557 252.337C942.374 253.531 944.172 254.803 945.9 256.119L945.249 256.975ZM841.7 250.759L841.155 249.831C843.029 248.731 844.965 247.682 846.91 246.715L847.389 247.678C845.466 248.634 843.552 249.671 841.7 250.759ZM934.439 249.872C932.564 248.818 930.63 247.818 928.691 246.9L929.151 245.928C931.112 246.856 933.068 247.868 934.965 248.934L934.439 249.872ZM853.28 245L852.869 244.006C854.877 243.176 856.941 242.407 859.002 241.72L859.341 242.74C857.304 243.42 855.264 244.18 853.28 245ZM922.75 244.336C920.747 243.553 918.693 242.832 916.645 242.193L916.965 241.166C919.037 241.813 921.115 242.542 923.141 243.334L922.75 244.336ZM865.547 240.91L865.279 239.869C867.382 239.328 869.533 238.854 871.671 238.461L871.865 239.518C869.751 239.907 867.626 240.375 865.547 240.91ZM910.405 240.483C908.315 239.988 906.181 239.56 904.061 239.212L904.235 238.151C906.38 238.503 908.539 238.935 910.653 239.436L910.405 240.483ZM878.265 238.569L878.144 237.501C880.296 237.258 882.491 237.086 884.669 236.991L884.716 238.065C882.563 238.159 880.392 238.329 878.265 238.569ZM897.644 238.386C895.511 238.186 893.338 238.058 891.186 238.005L891.212 236.93C893.389 236.983 895.587 237.113 897.745 237.315L897.644 238.386Z" fill="#637BFF"/>
<path d="M974.728 294.877C974.311 293.895 973.873 292.909 973.425 291.946L974.4 291.492C974.853 292.466 975.296 293.464 975.717 294.457L974.728 294.877Z" fill="#637BFF"/>
<path d="M988.603 331.141C987.191 331.135 985.821 331.62 984.726 332.512C983.632 333.405 982.881 334.649 982.602 336.034C982.322 337.418 982.532 338.857 983.194 340.104C983.857 341.352 984.931 342.33 986.234 342.873C987.538 343.416 988.989 343.49 990.34 343.082C991.692 342.674 992.86 341.81 993.646 340.636C994.431 339.462 994.785 338.052 994.648 336.646C994.51 335.241 993.889 333.926 992.891 332.927C992.33 332.36 991.662 331.91 990.926 331.603C990.19 331.296 989.4 331.139 988.603 331.141Z" fill="#3F3D56"/>
<path d="M964.287 331.141C962.876 331.135 961.506 331.62 960.411 332.512C959.317 333.405 958.566 334.649 958.286 336.034C958.007 337.418 958.216 338.857 958.879 340.104C959.541 341.352 960.616 342.33 961.919 342.873C963.222 343.416 964.674 343.49 966.025 343.082C967.377 342.674 968.545 341.81 969.331 340.636C970.116 339.462 970.47 338.052 970.332 336.646C970.195 335.241 969.574 333.926 968.575 332.927C968.014 332.361 967.346 331.912 966.61 331.605C965.874 331.299 965.085 331.141 964.287 331.141Z" fill="#3F3D56"/>
<path d="M976.445 297.392C970.386 297.392 964.463 299.19 959.425 302.558C954.388 305.925 950.461 310.712 948.142 316.313C945.824 321.913 945.217 328.076 946.399 334.021C947.581 339.966 950.499 345.428 954.783 349.714C959.067 354 964.526 356.919 970.468 358.102C976.411 359.285 982.57 358.678 988.168 356.358C993.766 354.038 998.55 350.11 1001.92 345.069C1005.28 340.029 1007.08 334.103 1007.08 328.042C1007.08 319.913 1003.85 312.117 998.107 306.369C992.362 300.621 984.57 297.392 976.445 297.392ZM982.398 310.173C982.788 310.169 983.174 310.243 983.535 310.391C983.895 310.538 984.223 310.756 984.498 311.032C984.773 311.307 984.991 311.635 985.139 311.996C985.286 312.356 985.36 312.743 985.356 313.133C985.36 313.723 985.188 314.302 984.862 314.794C984.537 315.287 984.072 315.671 983.527 315.899C982.983 316.127 982.383 316.187 981.803 316.073C981.224 315.959 980.692 315.675 980.275 315.257C979.857 314.839 979.573 314.307 979.459 313.728C979.345 313.148 979.405 312.548 979.633 312.003C979.861 311.458 980.245 310.993 980.737 310.667C981.23 310.341 981.808 310.169 982.398 310.173ZM964.287 345.91C962.57 345.911 960.89 345.402 959.461 344.448C958.033 343.494 956.919 342.137 956.261 340.549C955.603 338.962 955.431 337.214 955.766 335.529C956.101 333.843 956.928 332.295 958.143 331.079C959.357 329.864 960.905 329.037 962.59 328.702C964.275 328.366 966.021 328.539 967.608 329.197C969.195 329.855 970.551 330.969 971.505 332.399C972.458 333.828 972.967 335.508 972.966 337.227C972.958 339.528 972.041 341.732 970.416 343.358C968.79 344.985 966.587 345.902 964.287 345.91H964.287ZM977.933 328.6V336.976C977.933 337.371 977.776 337.749 977.497 338.029C977.218 338.308 976.84 338.465 976.445 338.465C976.05 338.465 975.672 338.308 975.393 338.029C975.113 337.749 974.957 337.371 974.957 336.976V330.843C974.957 329.624 973.468 329.354 969.236 326.916C968.687 326.59 967.515 326.013 967.515 324.393C967.524 323.613 967.834 322.866 968.38 322.309L975.05 315.878C975.366 315.558 975.752 315.315 976.178 315.169C976.604 315.023 977.058 314.979 977.505 315.038C977.951 315.098 978.377 315.26 978.75 315.512C979.123 315.765 979.433 316.1 979.654 316.492L982.398 322.085H986.863C987.257 322.086 987.635 322.243 987.914 322.523C988.192 322.802 988.349 323.18 988.349 323.574C988.349 323.969 988.192 324.347 987.914 324.626C987.635 324.906 987.257 325.063 986.863 325.064H981.524C980.528 325.064 979.729 322.923 977.989 320.271L973.44 325.064C975.105 326.366 977.933 327.372 977.933 328.6H977.933ZM988.603 345.901C986.886 345.901 985.208 345.391 983.781 344.437C982.354 343.483 981.241 342.127 980.585 340.541C979.928 338.954 979.756 337.208 980.091 335.524C980.426 333.839 981.252 332.292 982.466 331.078C983.68 329.864 985.226 329.037 986.909 328.702C988.593 328.367 990.338 328.539 991.924 329.196C993.51 329.853 994.865 330.966 995.819 332.394C996.772 333.822 997.281 335.5 997.281 337.218C997.274 339.518 996.357 341.723 994.731 343.35C993.105 344.976 990.902 345.894 988.603 345.901H988.603Z" fill="#3F3D56"/>
<path d="M1063.51 297.392C1057.45 297.392 1051.53 299.19 1046.49 302.558C1041.45 305.925 1037.53 310.712 1035.21 316.313C1032.89 321.913 1032.28 328.076 1033.47 334.021C1034.65 339.966 1037.56 345.428 1041.85 349.714C1046.13 354 1051.59 356.919 1057.53 358.102C1063.48 359.285 1069.64 358.678 1075.23 356.358C1080.83 354.038 1085.62 350.11 1088.98 345.069C1092.35 340.029 1094.15 334.103 1094.15 328.042C1094.15 319.913 1090.92 312.117 1085.17 306.369C1079.43 300.621 1071.64 297.392 1063.51 297.392ZM1055.39 319.303C1056.33 319.325 1057.24 319.622 1058.01 320.159C1058.78 320.696 1059.37 321.448 1059.71 322.321C1060.06 323.193 1060.13 324.148 1059.94 325.065C1059.74 325.982 1059.28 326.821 1058.61 327.477C1057.94 328.132 1057.09 328.575 1056.17 328.75C1055.25 328.925 1054.3 328.824 1053.43 328.46C1052.57 328.097 1051.83 327.486 1051.31 326.704C1050.79 325.923 1050.52 325.006 1050.52 324.068C1050.52 323.434 1050.65 322.809 1050.9 322.226C1051.15 321.644 1051.51 321.117 1051.97 320.674C1052.42 320.231 1052.95 319.883 1053.54 319.647C1054.13 319.412 1054.76 319.295 1055.39 319.303V319.303ZM1081.37 339.954H1078.12V335.189H1048.9V339.954H1045.65V316.129H1048.9V330.424H1061.88V319.303H1074.88C1075.72 319.294 1076.56 319.451 1077.34 319.765C1078.12 320.079 1078.84 320.545 1079.44 321.135C1080.04 321.726 1080.52 322.429 1080.86 323.205C1081.19 323.981 1081.36 324.815 1081.37 325.659V339.954Z" fill="#3F3D56"/>
<path d="M724.425 319.852H715.309C715.21 319.852 715.116 319.892 715.046 319.961C714.976 320.031 714.937 320.126 714.937 320.224V333.253C714.937 333.352 714.976 333.446 715.046 333.516C715.116 333.586 715.21 333.625 715.309 333.625H724.425C724.819 333.624 725.197 333.467 725.476 333.188C725.755 332.909 725.912 332.531 725.913 332.136V321.341C725.912 320.946 725.755 320.568 725.476 320.289C725.197 320.01 724.819 319.853 724.425 319.852Z" fill="#3F3D56"/>
<path d="M722.378 336.417C721.953 336.452 721.547 336.608 721.207 336.866C720.867 337.124 720.609 337.475 720.461 337.875C720.314 338.276 720.285 338.71 720.377 339.127C720.468 339.544 720.677 339.926 720.979 340.228C721.281 340.529 721.662 340.739 722.079 340.83C722.496 340.922 722.93 340.893 723.33 340.745C723.731 340.598 724.081 340.339 724.339 340C724.597 339.66 724.753 339.253 724.787 338.828C724.813 338.505 724.768 338.18 724.656 337.876C724.544 337.572 724.367 337.296 724.138 337.067C723.909 336.838 723.633 336.661 723.33 336.549C723.026 336.437 722.701 336.392 722.378 336.417Z" fill="#3F3D56"/>
<path d="M704.528 336.417C704.103 336.452 703.696 336.608 703.356 336.866C703.017 337.124 702.758 337.475 702.611 337.875C702.464 338.276 702.435 338.71 702.526 339.127C702.618 339.544 702.827 339.926 703.129 340.228C703.43 340.529 703.812 340.739 704.229 340.83C704.645 340.922 705.08 340.893 705.48 340.745C705.88 340.598 706.23 340.339 706.489 340C706.747 339.66 706.902 339.253 706.937 338.828C706.963 338.505 706.918 338.18 706.806 337.876C706.694 337.572 706.517 337.296 706.288 337.067C706.059 336.838 705.783 336.661 705.479 336.549C705.175 336.437 704.851 336.392 704.528 336.417Z" fill="#3F3D56"/>
<path d="M711.96 319.852H702.863C702.464 319.853 702.081 320.013 701.799 320.295C701.517 320.578 701.357 320.96 701.356 321.36V332.118C701.357 332.517 701.517 332.9 701.799 333.182C702.081 333.465 702.464 333.624 702.863 333.625H711.96C712.059 333.625 712.153 333.586 712.223 333.516C712.292 333.446 712.332 333.352 712.332 333.253V320.224C712.332 320.126 712.293 320.031 712.223 319.961C712.153 319.892 712.059 319.852 711.96 319.852Z" fill="#3F3D56"/>
<path d="M713.634 297.392C707.575 297.392 701.653 299.19 696.615 302.558C691.577 305.925 687.651 310.712 685.332 316.313C683.013 321.913 682.407 328.076 683.589 334.021C684.771 339.966 687.688 345.428 691.973 349.714C696.257 354 701.715 356.919 707.658 358.102C713.6 359.285 719.76 358.678 725.358 356.358C730.955 354.038 735.74 350.11 739.106 345.069C742.472 340.029 744.269 334.103 744.269 328.042C744.269 319.913 741.041 312.117 735.296 306.369C729.551 300.621 721.759 297.392 713.634 297.392ZM728.517 340.512C728.515 341.499 728.122 342.444 727.424 343.141C726.727 343.839 725.783 344.232 724.797 344.235H702.472C701.486 344.232 700.541 343.839 699.844 343.141C699.147 342.444 698.754 341.499 698.751 340.512V314.826C698.754 314.037 699.068 313.281 699.626 312.723C700.183 312.165 700.939 311.851 701.728 311.848H725.541C726.33 311.851 727.085 312.165 727.643 312.723C728.201 313.281 728.515 314.037 728.517 314.826V340.512Z" fill="#3F3D56"/>
<path d="M724.518 314.454H702.751C702.573 314.442 702.393 314.466 702.225 314.526C702.056 314.586 701.901 314.68 701.771 314.802C701.64 314.924 701.535 315.072 701.464 315.237C701.393 315.401 701.356 315.578 701.356 315.757C701.356 315.936 701.393 316.113 701.464 316.278C701.535 316.442 701.64 316.59 701.771 316.712C701.901 316.834 702.056 316.928 702.225 316.988C702.393 317.048 702.573 317.072 702.751 317.06H724.518C724.696 317.072 724.875 317.048 725.044 316.988C725.213 316.928 725.367 316.834 725.498 316.712C725.629 316.59 725.733 316.442 725.805 316.278C725.876 316.113 725.913 315.936 725.913 315.757C725.913 315.578 725.876 315.401 725.805 315.237C725.733 315.072 725.629 314.924 725.498 314.802C725.367 314.68 725.213 314.586 725.044 314.526C724.875 314.466 724.696 314.442 724.518 314.454Z" fill="#3F3D56"/>
<path d="M805.331 328.879C804.717 328.879 804.214 329.791 804.214 330.927C804.214 332.062 804.717 332.974 805.331 332.974C805.945 332.974 806.447 332.062 806.447 330.927C806.447 329.791 805.945 328.879 805.331 328.879Z" fill="#3F3D56"/>
<path d="M797.145 328.879C796.531 328.879 796.029 329.791 796.029 330.927C796.029 332.062 796.531 332.974 797.145 332.974C797.759 332.974 798.261 332.062 798.261 330.927C798.261 329.791 797.759 328.879 797.145 328.879Z" fill="#3F3D56"/>
<path d="M801.238 297.392C795.179 297.392 789.256 299.19 784.218 302.558C779.181 305.925 775.254 310.712 772.935 316.313C770.617 321.913 770.01 328.076 771.192 334.021C772.374 339.966 775.292 345.428 779.576 349.714C783.86 354 789.319 356.919 795.261 358.102C801.204 359.285 807.363 358.678 812.961 356.358C818.559 354.038 823.343 350.11 826.709 345.069C830.076 340.029 831.872 334.103 831.872 328.042C831.872 319.913 828.645 312.117 822.9 306.369C817.155 300.621 809.363 297.392 801.238 297.392ZM786.913 326.999L788.606 317.991C789.043 315.543 790.178 313.617 792.308 313.617H795.508L795.694 312.881C795.857 312.24 796.229 311.671 796.751 311.265C797.273 310.859 797.916 310.638 798.578 310.638H803.88C804.54 310.638 805.181 310.857 805.703 311.262C806.225 311.666 806.598 312.233 806.763 312.872L806.949 313.617H810.168C812.251 313.617 813.358 315.506 813.879 317.981V317.991L815.581 327.009C815.595 327.076 815.59 327.146 815.566 327.21C815.542 327.275 815.501 327.331 815.447 327.374C815.393 327.416 815.328 327.443 815.26 327.451C815.192 327.458 815.123 327.447 815.061 327.418L812.698 326.329C812.642 326.306 812.593 326.269 812.556 326.222C812.518 326.175 812.494 326.119 812.484 326.059L810.977 318.093C810.698 317.069 810.307 316.604 809.479 316.604H793.006C792.187 316.604 791.741 317.097 791.508 318.093L790.001 326.059C789.99 326.118 789.964 326.173 789.927 326.22C789.89 326.267 789.842 326.305 789.787 326.329L787.434 327.409C787.372 327.437 787.303 327.447 787.235 327.439C787.167 327.431 787.103 327.404 787.049 327.362C786.995 327.32 786.954 327.264 786.93 327.2C786.906 327.136 786.9 327.066 786.913 326.999ZM819.721 332.797L814.633 345.445C812.075 345.445 809.358 343.397 809.358 343.397C807.684 344.244 804.419 344.989 801.982 345.128C801.722 345.138 801.47 345.147 801.238 345.147C801.005 345.147 800.754 345.147 800.494 345.128C798.057 344.989 794.792 344.235 793.117 343.397C793.117 343.397 790.401 345.445 787.843 345.445L782.755 332.797C782.676 332.599 782.635 332.387 782.634 332.174C782.634 331.852 782.726 331.538 782.899 331.268C783.072 330.997 783.319 330.782 783.611 330.647L800.922 322.69C801.019 322.644 801.125 322.621 801.233 322.621C801.341 322.621 801.447 322.644 801.545 322.69L818.865 330.647C819.156 330.782 819.403 330.997 819.576 331.268C819.75 331.538 819.842 331.852 819.842 332.174C819.84 332.387 819.799 332.599 819.721 332.797Z" fill="#3F3D56"/>
<path d="M888.841 297.392C882.782 297.392 876.86 299.19 871.822 302.558C866.784 305.925 862.858 310.712 860.539 316.313C858.22 321.913 857.614 328.076 858.796 334.021C859.978 339.966 862.895 345.428 867.18 349.714C871.464 354 876.922 356.919 882.865 358.102C888.807 359.285 894.967 358.678 900.565 356.358C906.162 354.038 910.947 350.11 914.313 345.069C917.679 340.029 919.476 334.103 919.476 328.042C919.476 319.913 916.248 312.117 910.503 306.369C904.758 300.621 896.966 297.392 888.841 297.392ZM902.954 331.029C902.637 331.029 901.586 331.02 901.279 331.001L895.242 330.843C895.211 330.842 895.18 330.849 895.152 330.864C895.125 330.879 895.101 330.9 895.084 330.927L886.024 344.477C885.89 344.688 885.704 344.862 885.485 344.983C885.265 345.103 885.019 345.166 884.768 345.165H882.564C882.043 345.165 881.866 344.644 882.052 344.16L886.712 330.861C886.723 330.834 886.727 330.804 886.724 330.775C886.721 330.745 886.71 330.717 886.694 330.692C886.678 330.668 886.655 330.647 886.63 330.633C886.604 330.619 886.575 330.611 886.545 330.61L875.225 330.359C875.107 330.356 874.99 330.381 874.884 330.431C874.777 330.481 874.684 330.555 874.611 330.647L871.104 334.9C870.963 335.077 870.785 335.219 870.582 335.318C870.379 335.416 870.157 335.467 869.932 335.468H868.378C868.319 335.469 868.26 335.455 868.207 335.428C868.154 335.401 868.108 335.362 868.073 335.313C868.039 335.265 868.016 335.209 868.008 335.15C867.999 335.091 868.005 335.031 868.025 334.975L869.876 328.581C870.015 328.225 870.015 327.83 869.876 327.474L868.025 321.08C868.005 321.024 867.999 320.964 868.008 320.905C868.016 320.846 868.039 320.79 868.073 320.742C868.108 320.693 868.154 320.654 868.207 320.627C868.26 320.6 868.319 320.587 868.378 320.587H869.941C870.167 320.586 870.39 320.636 870.593 320.735C870.796 320.833 870.974 320.977 871.113 321.155L874.555 325.343C874.627 325.436 874.721 325.51 874.827 325.56C874.934 325.611 875.051 325.635 875.169 325.631L886.554 325.464C886.584 325.464 886.613 325.456 886.64 325.442C886.666 325.428 886.688 325.407 886.705 325.383C886.721 325.358 886.732 325.329 886.735 325.3C886.737 325.27 886.733 325.24 886.722 325.212L882.061 311.923C881.875 311.439 882.052 310.918 882.573 310.918H884.778C885.028 310.918 885.274 310.981 885.493 311.102C885.713 311.222 885.898 311.396 886.033 311.606L895.084 325.166C895.1 325.193 895.124 325.215 895.152 325.23C895.179 325.245 895.211 325.252 895.242 325.25L901.279 325.091C901.577 325.073 902.637 325.064 902.954 325.064C907.084 325.064 909.679 326.404 909.679 328.051C909.679 329.698 907.074 331.029 902.954 331.029Z" fill="#3F3D56"/>
<path d="M718.295 431.354C717.02 431.354 715.773 430.976 714.712 430.267C713.652 429.558 712.825 428.55 712.337 427.371C711.849 426.192 711.721 424.895 711.97 423.643C712.219 422.391 712.833 421.242 713.735 420.339C714.637 419.437 715.786 418.822 717.037 418.573C718.288 418.324 719.585 418.452 720.763 418.941C721.942 419.429 722.949 420.256 723.658 421.317C724.366 422.378 724.745 423.626 724.745 424.902C724.743 426.613 724.063 428.253 722.853 429.462C721.644 430.672 720.005 431.352 718.295 431.354ZM718.295 419.525C717.232 419.525 716.193 419.84 715.309 420.431C714.426 421.022 713.737 421.862 713.33 422.844C712.923 423.827 712.817 424.908 713.024 425.951C713.231 426.994 713.743 427.952 714.495 428.704C715.247 429.456 716.204 429.968 717.247 430.176C718.289 430.383 719.37 430.277 720.352 429.87C721.334 429.463 722.173 428.773 722.764 427.889C723.355 427.005 723.67 425.965 723.67 424.902C723.668 423.476 723.101 422.109 722.094 421.101C721.086 420.093 719.72 419.526 718.295 419.525Z" fill="#F0F0F0"/>
<path d="M854.269 286.711C852.993 286.711 851.746 286.333 850.686 285.624C849.625 284.915 848.799 283.907 848.31 282.728C847.822 281.549 847.695 280.251 847.943 279C848.192 277.748 848.807 276.598 849.708 275.696C850.61 274.794 851.76 274.179 853.011 273.93C854.262 273.681 855.558 273.809 856.737 274.297C857.915 274.786 858.923 275.613 859.631 276.674C860.34 277.735 860.718 278.982 860.718 280.259C860.716 281.969 860.036 283.609 858.827 284.819C857.618 286.029 855.979 286.709 854.269 286.711ZM854.269 274.882C853.206 274.882 852.167 275.197 851.283 275.788C850.399 276.379 849.71 277.218 849.303 278.201C848.897 279.183 848.79 280.265 848.998 281.308C849.205 282.351 849.717 283.309 850.469 284.061C851.22 284.813 852.178 285.325 853.22 285.532C854.263 285.74 855.344 285.633 856.326 285.226C857.308 284.819 858.147 284.13 858.738 283.246C859.328 282.362 859.643 281.322 859.643 280.259C859.642 278.833 859.075 277.466 858.067 276.458C857.06 275.45 855.694 274.883 854.269 274.882Z" fill="#F0F0F0"/>
<path d="M974.372 463.816L967.136 456.053L974.894 448.813L982.131 456.575L974.372 463.816ZM968.289 456.093L974.413 462.662L980.978 456.535L974.854 449.967L968.289 456.093Z" fill="#F0F0F0"/>
</g>
<circle cx="1358.5" cy="638.5" r="61.5" fill="#C5CAEA"/>
<circle cx="-126.5" cy="735.5" r="307.5" fill="#D0D7FF"/>
</g>
<defs>
<clipPath id="clip0">
<rect width="1366" height="625" fill="white"/>
</clipPath>
<clipPath id="clip1">
<rect x="683" y="156" width="549" height="421" fill="white"/>
</clipPath>
</defs>
</svg>
